<?xml version="1.0" encoding="UTF-8"?>
<!DOCTYPE svg PUBLIC "-//W3C//DTD SVG 1.1//EN" "http://www.w3.org/Graphics/SVG/1.1/DTD/svg11.dtd">
<svg xmlns="http://www.w3.org/2000/svg" version="1.1" width="800px" height="800px" style="shape-rendering:geometricPrecision; text-rendering:geometricPrecision; image-rendering:optimizeQuality; fill-rule:evenodd; clip-rule:evenodd" xmlns:xlink="http://www.w3.org/1999/xlink">
<g><path style="opacity:1" fill="#e6e6e8" d="M -0.5,-0.5 C 266.167,-0.5 532.833,-0.5 799.5,-0.5C 799.5,266.167 799.5,532.833 799.5,799.5C 749.167,799.5 698.833,799.5 648.5,799.5C 650.855,717.208 628.021,642.875 580,576.5C 546.651,532.488 503.484,502.654 450.5,487C 379.53,471.243 316.197,486.577 260.5,533C 215.282,573.564 183.782,623.064 166,681.5C 154.848,720.005 149.682,759.338 150.5,799.5C 100.167,799.5 49.8333,799.5 -0.5,799.5C -0.5,532.833 -0.5,266.167 -0.5,-0.5 Z"/></g>
<g><path style="opacity:1" fill="#818286" d="M 384.5,178.5 C 451.936,175.788 501.77,203.788 534,262.5C 557.561,317.551 552.228,369.551 518,418.5C 482.976,461.084 437.809,480.251 382.5,476C 318.78,465.553 276.613,429.72 256,368.5C 241.458,307.805 256.958,256.305 302.5,214C 326.42,194.205 353.753,182.372 384.5,178.5 Z"/></g>
<g><path style="opacity:1" fill="#818286" d="M 648.5,799.5 C 482.5,799.5 316.5,799.5 150.5,799.5C 149.682,759.338 154.848,720.005 166,681.5C 183.782,623.064 215.282,573.564 260.5,533C 316.197,486.577 379.53,471.243 450.5,487C 503.484,502.654 546.651,532.488 580,576.5C 628.021,642.875 650.855,717.208 648.5,799.5 Z"/></g>
</svg>
